<svg width="34" height="34" viewBox="0 0 34 34" fill="none" xmlns="http://www.w3.org/2000/svg">
<circle cx="17" cy="17" r="17" fill="#37CC81"/>
<path fill-rule="evenodd" clip-rule="evenodd" d="M17 8C12.0293 8 8 12.0293 8 17C8 18.701 8.4725 20.294 9.2942 21.6512L8.4914 24.38C8.44531 24.5367 8.44227 24.7029 8.48262 24.8611C8.52297 25.0194 8.6052 25.1638 8.72068 25.2793C8.83616 25.3948 8.98062 25.477 9.13887 25.5174C9.29713 25.5577 9.46333 25.5547 9.62 25.5086L12.3488 24.7058C13.7517 25.5544 15.3604 26.0021 17 26C21.9707 26 26 21.9707 26 17C26 12.0293 21.9707 8 17 8ZM14.9642 19.0367C16.7849 20.8565 18.5228 21.0968 19.1366 21.1193C20.0699 21.1535 20.9789 20.4407 21.3326 19.6136C21.3769 19.5106 21.3929 19.3977 21.379 19.2865C21.365 19.1753 21.3217 19.0698 21.2534 18.9809C20.7602 18.3509 20.0933 17.8982 19.4417 17.4482C19.3057 17.3539 19.1385 17.316 18.9752 17.3426C18.8118 17.3691 18.6652 17.4579 18.566 17.5904L18.026 18.4139C17.9975 18.458 17.9532 18.4896 17.9023 18.5023C17.8513 18.515 17.7974 18.5079 17.7515 18.4823C17.3852 18.2726 16.8515 17.9162 16.4681 17.5328C16.0847 17.1494 15.7499 16.64 15.5618 16.2971C15.539 16.2534 15.5326 16.203 15.5437 16.155C15.5547 16.107 15.5825 16.0645 15.6221 16.0352L16.4537 15.4178C16.5727 15.3148 16.6496 15.1716 16.6695 15.0155C16.6894 14.8593 16.651 14.7014 16.5617 14.5718C16.1585 13.9814 15.6887 13.2308 15.0074 12.7331C14.9193 12.6698 14.8163 12.6303 14.7085 12.6185C14.6006 12.6067 14.4915 12.6229 14.3918 12.6656C13.5638 13.0202 12.8474 13.9292 12.8816 14.8643C12.9041 15.4781 13.1444 17.216 14.9642 19.0367Z" fill="white"/>
</svg>
