<svg width="34" height="34" viewBox="0 0 34 34" fill="none" xmlns="http://www.w3.org/2000/svg">
<circle cx="17" cy="17" r="17" fill="#37CC81"/>
<path d="M16.9976 13.9987C15.345 13.9987 13.9964 15.3474 13.9964 17C13.9964 18.6526 15.345 20.0013 16.9976 20.0013C18.6502 20.0013 19.9988 18.6526 19.9988 17C19.9988 15.3474 18.6502 13.9987 16.9976 13.9987ZM25.999 17C25.999 15.7572 26.0103 14.5256 25.9405 13.285C25.8707 11.844 25.5419 10.5652 24.4883 9.51144C23.4323 8.45548 22.1557 8.12901 20.7148 8.05921C19.472 7.98941 18.2404 8.00067 16.9998 8.00067C15.757 8.00067 14.5255 7.98941 13.2849 8.05921C11.8439 8.12901 10.5651 8.45773 9.51141 9.51144C8.45547 10.5674 8.129 11.844 8.05921 13.285C7.98941 14.5278 8.00067 15.7594 8.00067 17C8.00067 18.2406 7.98941 19.4744 8.05921 20.715C8.129 22.156 8.45772 23.4348 9.51141 24.4886C10.5674 25.5445 11.8439 25.871 13.2849 25.9408C14.5277 26.0106 15.7593 25.9993 16.9998 25.9993C18.2426 25.9993 19.4742 26.0106 20.7148 25.9408C22.1557 25.871 23.4346 25.5423 24.4883 24.4886C25.5442 23.4326 25.8707 22.156 25.9405 20.715C26.0125 19.4744 25.999 18.2428 25.999 17ZM16.9976 21.6179C14.4422 21.6179 12.3798 19.5555 12.3798 17C12.3798 14.4445 14.4422 12.3821 16.9976 12.3821C19.553 12.3821 21.6154 14.4445 21.6154 17C21.6154 19.5555 19.553 21.6179 16.9976 21.6179ZM21.8045 13.2715C21.2078 13.2715 20.726 12.7897 20.726 12.193C20.726 11.5963 21.2078 11.1145 21.8045 11.1145C22.4011 11.1145 22.8829 11.5963 22.8829 12.193C22.8831 12.3347 22.8554 12.475 22.8012 12.6059C22.7471 12.7369 22.6677 12.8558 22.5675 12.956C22.4673 13.0562 22.3483 13.1356 22.2174 13.1897C22.0865 13.2439 21.9462 13.2717 21.8045 13.2715Z" fill="white"/>
</svg>
