<svg width="34" height="34" viewBox="0 0 34 34" fill="none" xmlns="http://www.w3.org/2000/svg">
<circle cx="17" cy="17" r="17" fill="#37CC81"/>
<path d="M22.25 8H11.75C10.4902 8 9.28204 8.48692 8.39124 9.35364C7.50044 10.2204 7 11.3959 7 12.6216V21.3784C7 21.9853 7.12286 22.5863 7.36157 23.147C7.60028 23.7077 7.95016 24.2172 8.39124 24.6464C9.28204 25.5131 10.4902 26 11.75 26H22.25C23.509 25.9974 24.7156 25.5097 25.6058 24.6435C26.4961 23.7774 26.9974 22.6033 27 21.3784V12.6216C26.9974 11.3967 26.4961 10.2226 25.6058 9.35648C24.7156 8.49032 23.509 8.00257 22.25 8ZM18.6 16.0951C18.108 16.3681 17.5514 16.5117 16.985 16.5117C16.4186 16.5117 15.862 16.3681 15.37 16.0951L8.52 12.2714C8.60857 11.4981 8.98701 10.7838 9.58292 10.265C10.1788 9.74628 10.9504 9.45946 11.75 9.45946H22.25C23.049 9.46159 23.8194 9.74914 24.4148 10.2675C25.0103 10.7859 25.3893 11.499 25.48 12.2714L18.6 16.0951Z" fill="white"/>
</svg>
