<svg width="166" height="181" viewBox="0 0 166 181" fill="none" xmlns="http://www.w3.org/2000/svg">
<path d="M82.4235 0.00147721C83.5272 -0.0405807 84.4566 0.820605 84.4987 1.92433C84.5408 3.02804 83.6796 3.9574 82.5759 3.99952C57.0336 4.97445 40.3633 16.5121 29.8229 30.5161C19.227 44.594 14.8042 61.2082 13.9938 72.148C13.9122 73.2494 12.9537 74.0761 11.8522 73.9946C10.7507 73.9131 9.92409 72.9545 10.0055 71.853C10.8618 60.2929 15.4894 42.9069 26.6266 28.1099C37.8195 13.239 55.5659 1.02658 82.4235 0.00147721Z" fill="#A1E897"/>
<path d="M83.5758 0.00147721C82.4721 -0.0405807 81.5427 0.820605 81.5006 1.92433C81.4585 3.02804 82.3197 3.9574 83.4235 3.99952C108.966 4.97445 125.636 16.5121 136.176 30.5161C146.75 44.5638 151.176 61.1371 152 72.0777V80.5005H142.453L154 100.501L165.547 80.5005H156V72.0005C156 71.9513 155.997 71.9021 155.994 71.853C155.137 60.2929 150.51 42.9069 139.373 28.1099C128.18 13.239 110.433 1.02658 83.5758 0.00147721Z" fill="#80BF90"/>
<path d="M83.123 180.499C82.0193 180.541 81.0899 179.68 81.0478 178.576C81.0057 177.472 81.8669 176.543 82.9707 176.501C108.513 175.526 125.183 163.988 135.724 149.984C146.32 135.907 150.742 119.292 151.553 108.353C151.634 107.251 152.593 106.424 153.694 106.506C154.796 106.587 155.622 107.546 155.541 108.647C154.685 120.208 150.057 137.594 138.92 152.391C127.727 167.261 109.981 179.474 83.123 180.499Z" fill="#A1E897"/>
<path d="M81.9707 180.499C83.0744 180.541 84.0038 179.68 84.0459 178.576C84.088 177.472 83.2268 176.543 82.123 176.501C56.5808 175.526 39.9105 163.988 29.3701 149.984C18.7969 135.937 14.371 119.363 13.5469 108.423V100H23.0938L11.5469 80L0 100H9.54688V108.5C9.54688 108.549 9.5491 108.598 9.55273 108.647C10.409 120.208 15.0366 137.594 26.1738 152.391C37.3667 167.261 55.1131 179.474 81.9707 180.499Z" fill="#80BF90"/>
<path d="M31 72C31 44.3858 53.3858 22 81 22H85C112.614 22 135 44.3858 135 72V110C135 137.614 112.614 160 85 160H81C53.3858 160 31 137.614 31 110V72Z" fill="#F2F2F2"/>
<path d="M27 110V72C27 42.1766 51.1766 18 81 18V22L80.3535 22.0039C53.0372 22.35 31 44.6016 31 72V110L31.0039 110.646C31.3473 137.748 53.2524 159.653 80.3535 159.996L81 160H85L85.6465 159.996C112.748 159.653 134.653 137.748 134.996 110.646L135 110V72C135 44.6016 112.963 22.35 85.6465 22.0039L85 22V18C114.823 18 139 42.1766 139 72V110C139 139.823 114.823 164 85 164H81C51.1766 164 27 139.823 27 110ZM85 18V22H81V18H85Z" fill="#F2B4DD"/>
<path d="M65.8494 122.666C65.8494 121.454 66.8164 120.472 68.0094 120.472C69.2023 120.472 70.1694 121.454 70.1694 122.666V136.698C70.4155 138.429 71.2821 141.045 73.0716 143.206C74.8452 145.348 77.5478 147.086 81.6894 147.086C82.8823 147.086 83.8494 148.068 83.8494 149.279C83.8494 150.49 82.8823 151.472 81.6894 151.472C76.1542 151.472 72.2807 149.067 69.7655 146.03C67.3882 143.159 66.2473 139.765 65.8986 137.361L65.8674 137.131C65.8555 137.038 65.8494 136.944 65.8494 136.85V122.666Z" fill="#37CC81"/>
<path d="M97.8494 122.666C97.8494 121.454 96.8823 120.472 95.6894 120.472C94.4964 120.472 93.5294 121.454 93.5294 122.666V136.698C93.2833 138.429 92.4167 141.045 90.6271 143.206C88.8535 145.348 86.151 147.086 82.0094 147.086C80.8164 147.086 79.8494 148.068 79.8494 149.279C79.8494 150.49 80.8164 151.472 82.0094 151.472C87.5445 151.472 91.4181 149.067 93.9332 146.03C96.3105 143.159 97.4514 139.765 97.8001 137.361L97.8314 137.131C97.8433 137.038 97.8494 136.944 97.8494 136.85V122.666Z" fill="#37CC81"/>
<path d="M40.0947 96.1993C40.3077 95.0945 41.3639 94.3368 42.5053 94.4926C43.6835 94.6535 44.5065 95.7267 44.3436 96.8896L44.3054 97.1793C43.5482 103.301 45.611 111.884 51.1393 116.933C53.8865 119.442 57.5308 121.125 62.2818 121.217C67.0772 121.309 73.1377 119.779 80.6323 115.581L80.7302 115.53C81.7483 115.025 82.9997 115.392 83.5684 116.381C84.1554 117.402 83.7928 118.7 82.7583 119.279L82.387 119.485C74.6048 123.783 67.9012 125.577 62.198 125.468C56.3599 125.355 51.7125 123.248 48.2138 120.053C41.3383 113.774 39.0703 103.49 40.0768 96.3072L40.0947 96.1993Z" fill="#37CC81"/>
<path d="M121.194 94.4926C122.335 94.3368 123.391 95.0945 123.604 96.1993L123.622 96.3072L123.667 96.646C124.556 103.81 122.253 113.872 115.485 120.053C111.986 123.248 107.339 125.355 101.501 125.468C95.7977 125.577 89.0941 123.783 81.312 119.485L80.9407 119.279L80.8456 119.223C79.8844 118.619 79.5616 117.37 80.1302 116.381C80.6989 115.392 81.9506 115.025 82.9688 115.53L83.0664 115.581L83.4166 115.776C90.7501 119.826 96.6964 121.308 101.417 121.217C106.168 121.125 109.812 119.442 112.56 116.933C118.088 111.884 120.151 103.301 119.393 97.1793L119.355 96.8895L119.343 96.7808C119.244 95.6604 120.052 94.6484 121.194 94.4926Z" fill="#37CC81"/>
<path d="M49.124 37.5117C52.3921 30.4765 60.4714 26.6961 64.1026 25.6853C64.7078 24.9778 65.2827 23.2291 62.7409 21.8948C56.689 19.3173 45.0389 22.6529 32.6324 27.5048C20.2259 32.3566 14.7791 39.1795 11.2992 45.6992C8.5153 50.9149 10.8453 54.5437 12.3583 55.7061C14.1235 58.1826 18.3195 63.9543 20.9823 67.2293C24.3109 71.323 25.6726 78.6008 26.883 83.1494C27.8513 86.7883 30.3125 87.1926 31.422 86.9399C32.6324 87.1421 35.8399 85.1508 38.9869 75.5684C43.072 44.0314 45.0389 46.3057 49.124 37.5117Z" fill="#37CC81"/>
<path d="M116.183 37.5117C112.915 30.4765 104.835 26.6961 101.204 25.6853C100.599 24.9778 100.024 23.2291 102.566 21.8948C108.618 19.3173 120.268 22.6529 132.674 27.5048C145.081 32.3566 150.528 39.1795 154.008 45.6992C156.792 50.9149 154.462 54.5437 152.949 55.7061C151.183 58.1826 146.987 63.9543 144.325 67.2293C140.996 71.323 139.634 78.6008 138.424 83.1494C137.456 86.7883 134.994 87.1926 133.885 86.9399C132.675 87.1421 129.467 85.1508 126.32 75.5684C122.235 44.0314 120.268 46.3057 116.183 37.5117Z" fill="#37CC81"/>
<path d="M85.6812 102.816C83.953 105.024 80.7457 105.024 79.0175 102.816L72.8467 94.933C70.5199 91.9604 72.5242 87.4723 76.1786 87.4723L88.5202 87.4723C92.1746 87.4723 94.1789 91.9604 91.852 94.933L85.6812 102.816Z" fill="#37CC81"/>
</svg>
