<svg width="263" height="176" viewBox="0 0 263 176" fill="none" xmlns="http://www.w3.org/2000/svg">
<g clip-path="url(#clip0_85_344)">
<path d="M131.305 0.000759669C131.866 -0.020869 132.338 0.422005 132.359 0.98961C132.381 1.55721 131.943 2.03514 131.382 2.0568C118.404 2.55816 109.934 8.49152 104.579 15.6932C99.1951 22.933 96.9475 31.4769 96.5357 37.1029C96.4942 37.6693 96.0071 38.0945 95.4474 38.0525C94.8876 38.0106 94.468 37.5177 94.5095 36.9512C94.9447 31.0063 97.2953 22.0653 102.954 14.4558C108.641 6.80832 117.659 0.527928 131.305 0.000759669Z" fill="#A1E897"/>
<path d="M131.891 0.000759669C131.33 -0.020869 130.858 0.422005 130.836 0.98961C130.815 1.55721 131.253 2.03514 131.813 2.0568C144.791 2.55816 153.262 8.49152 158.617 15.6932C163.989 22.9175 166.239 31.4404 166.657 37.0667V41.3983H161.806L167.673 51.6835L173.54 41.3983H168.689V37.0271C168.689 37.0018 168.688 36.9765 168.686 36.9512C168.251 31.0063 165.9 22.0653 160.241 14.4558C154.554 6.80832 145.537 0.527927 131.891 0.000759669Z" fill="#80BF90"/>
<path d="M131.66 92.8238C131.099 92.8457 130.627 92.4026 130.606 91.8352C130.585 91.2669 131.022 90.7897 131.583 90.7678C144.561 90.2661 153.031 84.333 158.387 77.1312C163.77 69.8915 166.018 61.3475 166.43 55.7216C166.471 55.1551 166.958 54.73 167.518 54.7719C168.078 54.8138 168.497 55.3068 168.456 55.8732C168.021 61.8182 165.67 70.7591 160.01 78.3687C154.324 86.0162 145.307 92.2967 131.66 92.8238Z" fill="#A1E897"/>
<path d="M131.075 92.8239C131.636 92.8458 132.108 92.4027 132.129 91.8353C132.151 91.267 131.713 90.7898 131.152 90.7679C118.174 90.2662 109.704 84.3331 104.349 77.1314C98.9762 69.9071 96.7277 61.3842 96.309 55.7579V51.4263H101.16L95.2925 41.1411L89.4252 51.4263H94.276V55.7975C94.276 55.8228 94.2777 55.8481 94.2794 55.8734C94.7146 61.8183 97.066 70.7593 102.725 78.3688C108.411 86.0163 117.429 92.2968 131.075 92.8239Z" fill="#80BF90"/>
<path d="M105.177 37.0267C105.177 22.8258 116.551 11.3137 130.582 11.3137H132.614C146.645 11.3137 158.019 22.8258 158.019 37.0267V56.5687C158.019 70.7696 146.645 82.2817 132.614 82.2817H130.582C116.551 82.2817 105.177 70.7696 105.177 56.5687V37.0267Z" fill="#F2F2F2"/>
<path d="M103.144 56.5688V37.0269C103.144 21.6899 115.428 9.25684 130.582 9.25684V11.3138L130.253 11.3159C116.374 11.4939 105.177 22.9369 105.177 37.0269V56.5688L105.178 56.9013C105.353 70.8383 116.483 82.1032 130.253 82.2799L130.582 82.2819H132.614L132.943 82.2799C146.712 82.1032 157.842 70.8383 158.017 56.9013L158.019 56.5688V37.0269C158.019 22.9369 146.822 11.4939 132.943 11.3159L132.614 11.3138V9.25684C147.767 9.25684 160.052 21.6899 160.052 37.0269V56.5688C160.052 71.9058 147.767 84.3389 132.614 84.3389H130.582C115.428 84.3389 103.144 71.9058 103.144 56.5688ZM132.614 9.25684V11.3138H130.582V9.25684H132.614Z" fill="#F2B4DD"/>
<path d="M122.883 63.0823C122.883 62.4594 123.375 61.9543 123.981 61.9543C124.587 61.9543 125.078 62.4594 125.078 63.0823V70.2986C125.204 71.189 125.644 72.5342 126.553 73.6456C127.455 74.7469 128.828 75.6405 130.932 75.6405C131.538 75.6405 132.029 76.1455 132.029 76.7685C132.029 77.3915 131.538 77.8964 130.932 77.8964C128.119 77.8964 126.151 76.6594 124.873 75.0975C123.665 73.6213 123.086 71.8759 122.908 70.6394L122.893 70.5214C122.887 70.4734 122.883 70.425 122.883 70.3766V63.0823Z" fill="#37CC81"/>
<path d="M139.143 63.0823C139.143 62.4594 138.652 61.9543 138.046 61.9543C137.439 61.9543 136.948 62.4594 136.948 63.0823V70.2986C136.823 71.189 136.383 72.5342 135.474 73.6456C134.572 74.7469 133.199 75.6405 131.094 75.6405C130.489 75.6405 129.997 76.1455 129.997 76.7685C129.997 77.3915 130.489 77.8964 131.094 77.8964C133.907 77.8964 135.875 76.6594 137.153 75.0975C138.361 73.6213 138.941 71.8759 139.118 70.6394L139.134 70.5214C139.14 70.4734 139.143 70.425 139.143 70.3766V63.0823Z" fill="#37CC81"/>
<path d="M109.798 49.4717C109.906 48.9035 110.443 48.5138 111.022 48.5939C111.621 48.6767 112.04 49.2286 111.957 49.8266L111.938 49.9757C111.553 53.1238 112.6 57.5377 115.409 60.134C116.806 61.4242 118.657 62.2902 121.071 62.3372C123.508 62.3846 126.587 61.5975 130.395 59.439L130.444 59.4125C130.962 59.153 131.598 59.3417 131.887 59.8504C132.185 60.3754 132.001 61.0427 131.475 61.3406L131.286 61.4468C127.333 63.6571 123.927 64.5796 121.028 64.5232C118.062 64.4655 115.701 63.3819 113.923 61.7388C110.43 58.5097 109.277 53.2211 109.789 49.5272L109.798 49.4717Z" fill="#37CC81"/>
<path d="M151.004 48.5939C151.584 48.5138 152.12 48.9035 152.229 49.4717L152.238 49.5272L152.261 49.7013C152.713 53.3858 151.543 58.5602 148.104 61.7388C146.326 63.3819 143.965 64.4655 140.998 64.5232C138.1 64.5796 134.694 63.6571 130.74 61.4468L130.552 61.3406L130.503 61.3116C130.015 61.0011 129.851 60.3591 130.14 59.8504C130.429 59.3417 131.065 59.1529 131.582 59.4125L131.632 59.439L131.81 59.5392C135.536 61.622 138.557 62.3838 140.955 62.3372C143.37 62.2902 145.221 61.4242 146.617 60.134C149.426 57.5377 150.474 53.1238 150.089 49.9757L150.07 49.8266L150.064 49.7707C150.014 49.1945 150.424 48.6741 151.004 48.5939Z" fill="#37CC81"/>
<path d="M114.385 19.2909C116.046 15.673 120.151 13.7289 121.996 13.209C122.304 12.8452 122.596 11.9459 121.304 11.2597C118.229 9.93421 112.31 11.6496 106.006 14.1447C99.7021 16.6398 96.9345 20.1486 95.167 23.5014C93.7525 26.1836 94.9361 28.0498 95.7052 28.6476C96.6014 29.9212 98.734 32.8892 100.087 34.5735C101.778 36.6788 102.47 40.4214 103.085 42.7606C103.577 44.6319 104.827 44.8398 105.391 44.7099C106.006 44.8139 107.636 43.7899 109.235 38.8619C111.31 22.6437 112.31 23.8133 114.385 19.2909Z" fill="#37CC81"/>
<path d="M148.458 19.2909C146.797 15.673 142.692 13.7289 140.848 13.209C140.54 12.8452 140.248 11.9459 141.539 11.2597C144.614 9.93421 150.534 11.6496 156.837 14.1447C163.141 16.6398 165.909 20.1486 167.677 23.5014C169.092 26.1836 167.907 28.0498 167.139 28.6476C166.242 29.9212 164.109 32.8892 162.757 34.5735C161.066 36.6788 160.374 40.4214 159.759 42.7606C159.266 44.6319 158.016 44.8398 157.452 44.7099C156.837 44.8139 155.208 43.7899 153.608 38.8619C151.533 22.6437 150.534 23.8133 148.458 19.2909Z" fill="#37CC81"/>
<path d="M132.96 52.8745C132.082 54.0099 130.452 54.0099 129.574 52.8745L126.439 48.8204C125.257 47.2917 126.275 44.9836 128.132 44.9836H134.402C136.26 44.9836 137.278 47.2917 136.096 48.8204L132.96 52.8745Z" fill="#37CC81"/>
<path d="M144.472 138.656C144.472 135.902 145.029 133.462 146.143 131.339C147.291 129.215 148.832 127.572 150.766 126.411C152.734 125.217 154.898 124.619 157.258 124.619C159.389 124.619 161.242 125.05 162.816 125.914C164.423 126.743 165.701 127.788 166.652 129.049V125.067H172.307V152.494H166.652V148.413C165.701 149.707 164.406 150.785 162.767 151.648C161.127 152.511 159.259 152.942 157.16 152.942C154.832 152.942 152.701 152.344 150.766 151.15C148.832 149.922 147.291 148.23 146.143 146.073C145.029 143.882 144.472 141.41 144.472 138.656ZM166.652 138.755C166.652 136.864 166.258 135.221 165.471 133.827C164.718 132.434 163.718 131.372 162.472 130.642C161.226 129.912 159.882 129.547 158.438 129.547C156.996 129.547 155.652 129.912 154.406 130.642C153.16 131.339 152.144 132.384 151.357 133.778C150.603 135.138 150.226 136.764 150.226 138.656C150.226 140.548 150.603 142.207 151.357 143.634C152.144 145.061 153.16 146.155 154.406 146.919C155.685 147.649 157.029 148.014 158.438 148.014C159.882 148.014 161.226 147.649 162.472 146.919C163.718 146.189 164.718 145.127 165.471 143.733C166.258 142.306 166.652 140.647 166.652 138.755Z" fill="#80BF90"/>
<path d="M138.98 115.659V152.494H133.373V115.659H138.98Z" fill="#80BF90"/>
<path d="M102.015 138.755C102.015 135.935 102.573 133.462 103.687 131.339C104.835 129.182 106.409 127.523 108.409 126.361C110.408 125.2 112.703 124.619 115.293 124.619C118.572 124.619 121.278 125.415 123.408 127.008C125.572 128.568 127.032 130.808 127.785 133.728H121.736C121.245 132.368 120.457 131.306 119.376 130.542C118.294 129.779 116.933 129.398 115.293 129.398C112.998 129.398 111.162 130.227 109.785 131.886C108.442 133.512 107.769 135.802 107.769 138.755C107.769 141.709 108.442 144.015 109.785 145.675C111.162 147.334 112.998 148.163 115.293 148.163C118.539 148.163 120.687 146.72 121.736 143.833H127.785C126.999 146.62 125.523 148.843 123.359 150.503C121.195 152.129 118.507 152.942 115.293 152.942C112.703 152.942 110.408 152.361 108.409 151.2C106.409 150.005 104.835 148.346 103.687 146.222C102.573 144.065 102.015 141.577 102.015 138.755Z" fill="#80BF90"/>
<path d="M93.769 121.433C92.7525 121.433 91.9003 121.084 91.2117 120.387C90.523 119.69 90.1787 118.828 90.1787 117.799C90.1787 116.77 90.523 115.908 91.2117 115.211C91.9003 114.514 92.7525 114.165 93.769 114.165C94.7527 114.165 95.5892 114.514 96.277 115.211C96.9657 115.908 97.31 116.77 97.31 117.799C97.31 118.828 96.9657 119.69 96.277 120.387C95.5892 121.084 94.7527 121.433 93.769 121.433ZM96.5236 125.067V152.494H90.9167V125.067H96.5236Z" fill="#80BF90"/>
<path d="M59.5587 138.755C59.5587 135.935 60.1161 133.462 61.2308 131.339C62.3784 129.182 63.9522 127.523 65.9522 126.361C67.9522 125.2 70.2472 124.619 72.8374 124.619C76.1161 124.619 78.821 125.415 80.9522 127.008C83.1162 128.568 84.5751 130.808 85.3293 133.728H79.2801C78.7883 132.368 78.0013 131.306 76.9194 130.542C75.8375 129.779 74.4768 129.398 72.8374 129.398C70.5423 129.398 68.7063 130.227 67.3292 131.886C65.985 133.512 65.3128 135.802 65.3128 138.755C65.3128 141.709 65.985 144.015 67.3292 145.675C68.7063 147.334 70.5423 148.163 72.8374 148.163C76.0833 148.163 78.2309 146.72 79.2801 143.833H85.3293C84.5423 146.62 83.0669 148.843 80.903 150.503C78.7391 152.129 76.0505 152.942 72.8374 152.942C70.2472 152.942 67.9522 152.361 65.9522 151.2C63.9522 150.005 62.3784 148.346 61.2308 146.222C60.1161 144.065 59.5587 141.577 59.5587 138.755Z" fill="#80BF90"/>
<path d="M55.9101 138.108C55.9101 139.137 55.8445 140.066 55.7133 140.896H35.0084C35.1724 143.086 35.9756 144.845 37.4183 146.172C38.8609 147.499 40.6314 148.163 42.7298 148.163C45.7462 148.163 47.8773 146.886 49.1232 144.331H55.1724C54.3528 146.852 52.8609 148.927 50.697 150.553C48.5658 152.145 45.9101 152.942 42.7298 152.942C40.1396 152.942 37.8117 152.361 35.7461 151.2C33.7134 150.005 32.1068 148.346 30.9265 146.222C29.779 144.065 29.2052 141.577 29.2052 138.755C29.2052 135.935 29.7625 133.462 30.8773 131.339C32.0248 129.182 33.615 127.523 35.6478 126.361C37.7133 125.2 40.074 124.619 42.7298 124.619C45.2871 124.619 47.5658 125.183 49.5658 126.311C51.5658 127.44 53.1232 129.033 54.238 131.09C55.3528 133.114 55.9101 135.453 55.9101 138.108ZM50.0576 136.317C50.0249 134.226 49.2872 132.55 47.8445 131.289C46.4019 130.028 44.615 129.398 42.4838 129.398C40.5494 129.398 38.8937 130.028 37.5167 131.289C36.1396 132.517 35.32 134.193 35.0576 136.317H50.0576Z" fill="#80BF90"/>
<path d="M17.7541 152.494L9.88525 138.656H5.60656V152.494H0V117.899H11.8033C14.4262 117.899 16.6393 118.364 18.4426 119.293C20.2787 120.222 21.6394 121.466 22.5247 123.027C23.4426 124.586 23.9017 126.328 23.9017 128.252C23.9017 130.51 23.2459 132.566 21.9345 134.425C20.6558 136.25 18.6721 137.494 15.9837 138.158L24.4426 152.494H17.7541ZM5.60656 134.126H11.8033C13.9016 134.126 15.4754 133.595 16.5246 132.533C17.6066 131.472 18.1476 130.045 18.1476 128.252C18.1476 126.461 17.623 125.067 16.5738 124.071C15.5246 123.042 13.9344 122.528 11.8033 122.528H5.60656V134.126Z" fill="#80BF90"/>
<path d="M260.305 133.517L254.235 133.439L253.927 144.561C253.927 147.88 254.286 149.798 255.003 150.316C255.721 150.783 256.309 151.016 256.77 151.016C257.129 151.016 257.539 150.964 258 150.861C258.462 150.705 258.897 150.524 259.307 150.316C259.716 150.109 260.1 150.006 260.459 150.006C261.381 150.006 261.971 150.316 262.227 150.939C262.534 151.509 262.688 151.949 262.688 152.261C262.688 153.298 262.253 153.997 261.381 154.361C259.742 155.19 258.18 155.605 256.694 155.605C255.362 155.605 253.799 155.035 252.006 153.894C250.264 152.702 249.393 149.617 249.393 144.639L249.701 133.361H247.012C246.396 133.361 245.884 133.128 245.474 132.661C245.065 132.195 244.86 131.65 244.86 131.028C244.86 130.406 245.09 129.861 245.551 129.394C246.012 128.928 246.576 128.695 247.242 128.695L250.008 128.773L250.623 121.617L250.7 120.528C250.7 119.958 250.956 119.466 251.469 119.051C251.981 118.635 252.544 118.428 253.159 118.428C254.543 118.584 255.234 119.413 255.234 120.917L255.157 122.006L254.543 128.851H260.459C261.278 128.851 261.843 129.11 262.15 129.628C262.509 130.095 262.688 130.613 262.688 131.183C262.688 131.806 262.457 132.35 261.996 132.817C261.535 133.284 260.971 133.517 260.305 133.517Z" fill="#F2B4DD"/>
<path d="M242.4 150.861C240.966 152.208 239.224 153.271 237.175 154.049C235.125 154.827 233.076 155.216 231.027 155.216C229.849 155.216 228.082 154.905 225.725 154.283C223.368 153.609 221.601 151.587 220.423 148.217C220.115 147.179 219.961 146.168 219.961 145.182C219.961 142.435 221.115 140.128 223.419 138.261L223.957 137.95C223.547 137.483 223.138 136.887 222.728 136.161C222.369 135.435 222.19 134.58 222.19 133.594C222.19 133.075 222.344 132.22 222.651 131.027C222.958 129.783 223.906 128.772 225.495 127.994C227.082 127.165 228.85 126.75 230.796 126.75C233.256 126.75 235.305 127.139 236.944 127.917C238.634 128.643 239.48 129.498 239.48 130.483C239.48 130.691 239.429 131.002 239.327 131.417C238.916 132.349 238.225 132.816 237.252 132.816C236.944 132.816 236.202 132.583 235.023 132.116C233.896 131.598 232.487 131.339 230.796 131.339C230.233 131.339 229.695 131.391 229.183 131.494C228.722 131.546 228.261 131.701 227.8 131.961C227.338 132.168 227.057 132.376 226.954 132.583C226.903 132.739 226.852 132.894 226.801 133.05L226.724 133.594C226.724 134.009 226.903 134.475 227.261 134.994C227.723 135.409 228.056 135.721 228.261 135.927C229.029 135.721 229.823 135.616 230.643 135.616C231.565 135.616 232.462 135.902 233.333 136.472C234.203 136.99 234.511 137.975 234.254 139.427C233.998 140.413 233.486 141.035 232.718 141.294C232.001 141.501 231.488 141.606 231.18 141.606C230.105 141.606 229.029 141.372 227.954 140.905C227.646 141.061 227.236 141.294 226.724 141.606C226.212 141.916 225.699 142.357 225.187 142.928C224.726 143.446 224.496 144.197 224.496 145.182C224.496 145.649 224.573 146.168 224.726 146.738C225.443 148.605 226.493 149.72 227.877 150.082C229.26 150.394 230.361 150.549 231.18 150.549C234.408 150.549 236.688 149.927 238.02 148.682C239.404 147.438 240.351 146.816 240.863 146.816C241.478 146.816 242.016 147.076 242.477 147.594C242.938 148.112 243.169 148.631 243.169 149.149C243.169 149.772 242.912 150.342 242.4 150.861Z" fill="#F2B4DD"/>
<path d="M200.179 154.439C199.821 154.386 199.436 154.153 199.027 153.738L199.257 158.949C199.257 162.475 198.95 165.327 198.335 167.505C197.772 169.682 197.131 171.315 196.414 172.405C195.697 173.546 195.031 174.401 194.416 174.971C193.802 175.541 193.109 175.827 192.341 175.827C191.624 175.827 190.881 175.619 190.113 175.204C189.344 174.842 188.627 174.089 187.961 172.949C187.347 171.86 186.886 170.408 186.578 168.593C186.271 166.779 186.117 164.679 186.117 162.294C186.117 158.509 186.527 154.568 187.347 150.472C188.217 146.375 189.446 142.591 191.035 139.116L187.423 129.706L187.27 128.772C187.27 127.787 187.577 127.165 188.192 126.906C188.806 126.595 189.267 126.439 189.575 126.439C190.549 126.439 191.24 126.906 191.65 127.839L194.032 133.827C195.722 131.442 197.541 129.758 199.488 128.772C201.486 127.735 203.381 127.217 205.175 127.217C205.738 127.217 206.916 127.346 208.709 127.605C210.502 127.813 212.321 129.239 214.165 131.884C216.009 134.475 216.932 137.405 216.932 140.672C216.932 141.346 216.906 141.89 216.855 142.305C216.804 142.72 216.548 143.965 216.086 146.039C215.676 148.061 214.267 150.005 211.859 151.871C209.503 153.738 206.609 154.672 203.176 154.672C202.203 154.672 201.204 154.594 200.179 154.439ZM210.63 134.917C210.067 134.087 209.375 133.387 208.555 132.816C207.787 132.194 206.839 131.884 205.712 131.884H204.944C203.048 131.884 201.332 132.583 199.795 133.983C198.31 135.331 197.003 137.12 195.876 139.35C197.259 143.757 198.182 147.697 198.643 151.172C199.155 150.187 199.923 149.772 200.948 149.928C201.717 150.083 202.434 150.16 203.099 150.16C205.405 150.16 207.351 149.539 208.94 148.294C210.528 147.049 211.578 145.287 212.09 143.005C212.295 142.331 212.398 141.528 212.398 140.594C212.398 138.468 211.808 136.576 210.63 134.917ZM193.109 146.35C192.341 148.89 191.726 151.638 191.266 154.594C190.856 157.497 190.651 160.064 190.651 162.294C190.651 164.367 190.779 166.131 191.035 167.583C191.291 169.086 191.624 170.149 192.034 170.772C192.648 169.993 193.237 168.568 193.802 166.493C194.416 164.42 194.724 161.957 194.724 159.105C194.724 156.979 194.621 155.035 194.416 153.272C194.211 151.509 193.776 149.202 193.109 146.35Z" fill="#F2B4DD"/>
<path d="M169.918 172.031C169.465 172.031 169.058 171.952 168.695 171.795C168.334 171.632 168.049 171.403 167.842 171.108C167.636 170.814 167.532 170.47 167.532 170.077H168.715C168.741 170.372 168.855 170.614 169.054 170.804C169.261 170.993 169.549 171.089 169.918 171.089C170.299 171.089 170.597 170.997 170.81 170.814C171.024 170.624 171.13 170.382 171.13 170.087C171.13 169.858 171.062 169.672 170.927 169.527C170.797 169.384 170.632 169.273 170.432 169.194C170.238 169.115 169.966 169.03 169.618 168.939C169.177 168.821 168.818 168.703 168.541 168.585C168.269 168.461 168.036 168.271 167.842 168.016C167.649 167.76 167.552 167.421 167.552 166.995C167.552 166.602 167.649 166.259 167.842 165.965C168.036 165.669 168.308 165.444 168.657 165.287C169.006 165.13 169.41 165.051 169.869 165.051C170.523 165.051 171.056 165.219 171.47 165.552C171.89 165.88 172.123 166.331 172.168 166.907H170.946C170.927 166.658 170.81 166.445 170.597 166.268C170.383 166.092 170.102 166.004 169.753 166.004C169.436 166.004 169.177 166.085 168.977 166.249C168.777 166.413 168.676 166.648 168.676 166.956C168.676 167.165 168.738 167.338 168.861 167.476C168.99 167.607 169.151 167.711 169.346 167.79C169.54 167.869 169.805 167.954 170.141 168.045C170.587 168.169 170.949 168.294 171.228 168.418C171.511 168.542 171.751 168.736 171.945 168.998C172.146 169.253 172.246 169.597 172.246 170.028C172.246 170.375 172.152 170.703 171.965 171.01C171.783 171.317 171.515 171.566 171.159 171.756C170.81 171.939 170.396 172.031 169.918 172.031Z" fill="#80BF90"/>
<path d="M163.336 165.14V171.962H162.23V165.14H163.336Z" fill="#80BF90"/>
<path d="M156.622 170.568H153.799L153.314 171.962H152.16L154.575 165.129H155.855L158.271 171.962H157.106L156.622 170.568ZM156.311 169.655L155.215 166.485L154.109 169.655H156.311Z" fill="#80BF90"/>
<path d="M148.194 165.14V171.962H147.089V167.289L145.033 171.962H144.267L142.201 167.289V171.962H141.095V165.14H142.288L144.654 170.49L147.012 165.14H148.194Z" fill="#80BF90"/>
<path d="M136.734 165.14V171.962H135.628V165.14H136.734Z" fill="#80BF90"/>
<path d="M131.266 171.962H130.161L126.834 166.867V171.962H125.729V165.129H126.834L130.161 170.215V165.129H131.266V171.962Z" fill="#80BF90"/>
<path d="M120.12 170.568H117.298L116.813 171.962H115.659L118.074 165.129H119.354L121.769 171.962H120.605L120.12 170.568ZM119.809 169.655L118.714 166.485L117.609 169.655H119.809Z" fill="#80BF90"/>
<path d="M103.737 166.042V168.045H106.065V168.958H103.737V171.049H106.356V171.962H102.631V165.129H106.356V166.042H103.737Z" fill="#80BF90"/>
<path d="M95.0469 165.14C95.7649 165.14 96.3921 165.281 96.9285 165.562C97.4718 165.837 97.8888 166.236 98.1795 166.76C98.4771 167.276 98.6259 167.881 98.6259 168.576C98.6259 169.269 98.4771 169.872 98.1795 170.382C97.8888 170.892 97.4718 171.285 96.9285 171.56C96.3921 171.828 95.7649 171.962 95.0469 171.962H92.8451V165.14H95.0469ZM95.0469 171.049C95.8359 171.049 96.4406 170.833 96.861 170.401C97.2806 169.97 97.4909 169.361 97.4909 168.576C97.4909 167.783 97.2806 167.165 96.861 166.72C96.4406 166.275 95.8359 166.053 95.0469 166.053H93.9507V171.049H95.0469Z" fill="#80BF90"/>
<path d="M79.9755 172.031C79.3484 172.031 78.7696 171.884 78.2395 171.59C77.7157 171.288 77.2986 170.872 76.9883 170.343C76.6844 169.806 76.5325 169.203 76.5325 168.536C76.5325 167.869 76.6844 167.27 76.9883 166.739C77.2986 166.21 77.7157 165.797 78.2395 165.503C78.7696 165.202 79.3484 165.051 79.9755 165.051C80.6092 165.051 81.1879 165.202 81.7117 165.503C82.2418 165.797 82.6589 166.21 82.9628 166.739C83.2667 167.27 83.4187 167.869 83.4187 168.536C83.4187 169.203 83.2667 169.806 82.9628 170.343C82.6589 170.872 82.2418 171.288 81.7117 171.59C81.1879 171.884 80.6092 172.031 79.9755 172.031ZM79.9755 171.059C80.4217 171.059 80.8194 170.957 81.1685 170.755C81.5177 170.545 81.7893 170.251 81.9832 169.872C82.1837 169.485 82.2839 169.04 82.2839 168.536C82.2839 168.032 82.1837 167.591 81.9832 167.211C81.7893 166.831 81.5177 166.54 81.1685 166.338C80.8194 166.134 80.4217 166.033 79.9755 166.033C79.5294 166.033 79.1318 166.134 78.7826 166.338C78.4334 166.54 78.1587 166.831 77.9582 167.211C77.7642 167.591 77.6672 168.032 77.6672 168.536C77.6672 169.04 77.7642 169.485 77.9582 169.872C78.1587 170.251 78.4334 170.545 78.7826 170.755C79.1318 170.957 79.5294 171.059 79.9755 171.059Z" fill="#80BF90"/>
<path d="M71.2924 170.568H68.47L67.9851 171.962H66.8309L69.246 165.13H70.5263L72.9413 171.962H71.7773L71.2924 170.568ZM70.9821 169.655L69.8861 166.485L68.7804 169.655H70.9821ZM68.3052 164.57C68.3569 164.19 68.4798 163.906 68.6738 163.716C68.8677 163.52 69.1102 163.422 69.4012 163.422C69.524 163.422 69.6307 163.441 69.7212 163.48C69.8117 163.52 69.9216 163.578 70.051 163.657C70.1479 163.723 70.2288 163.772 70.2935 163.804C70.3646 163.838 70.4422 163.853 70.5263 163.853C70.6361 163.853 70.7266 163.821 70.7978 163.755C70.8753 163.683 70.9239 163.578 70.9433 163.441H71.564C71.5122 163.821 71.3894 164.109 71.1954 164.305C71.0015 164.495 70.759 164.59 70.468 164.59C70.3452 164.59 70.2352 164.57 70.1382 164.531C70.0413 164.486 69.9346 164.423 69.8182 164.345C69.7018 164.273 69.6113 164.224 69.5467 164.197C69.4884 164.164 69.4205 164.148 69.3429 164.148C69.2331 164.148 69.1393 164.184 69.0617 164.256C68.9906 164.328 68.9453 164.433 68.9259 164.57H68.3052Z" fill="#80BF90"/>
<path d="M59.8921 171.049C60.2994 171.049 60.6583 170.961 60.9687 170.784C61.279 170.607 61.5215 170.339 61.6961 169.979H63.0248C62.792 170.582 62.43 171.059 61.9386 171.413C61.4471 171.759 60.8781 171.959 60.2316 172.012V172.434C60.6065 172.434 60.9105 172.522 61.1433 172.698C61.376 172.882 61.4924 173.137 61.4924 173.464C61.4924 173.791 61.376 174.05 61.1433 174.239C60.9105 174.436 60.6163 174.534 60.2607 174.534H58.9804V173.828H60.0375C60.2186 173.828 60.3544 173.801 60.4449 173.749C60.5354 173.696 60.5807 173.602 60.5807 173.464C60.5807 173.327 60.5354 173.231 60.4449 173.18C60.3544 173.127 60.2186 173.101 60.0375 173.101H59.5041V172.001C58.9351 171.942 58.4178 171.759 57.9523 171.452C57.4868 171.144 57.1182 170.738 56.8467 170.234C56.5815 169.724 56.449 169.158 56.449 168.536C56.449 167.869 56.601 167.27 56.9048 166.739C57.2152 166.21 57.6322 165.797 58.156 165.503C58.6862 165.202 59.2649 165.051 59.8921 165.051C60.6098 165.051 61.2467 165.232 61.8028 165.592C62.3653 165.944 62.7727 166.449 63.0248 167.103H61.6961C61.5215 166.743 61.279 166.475 60.9687 166.298C60.6583 166.121 60.2994 166.033 59.8921 166.033C59.446 166.033 59.0483 166.134 58.6991 166.338C58.3499 166.54 58.0752 166.831 57.8747 167.211C57.6808 167.591 57.5838 168.032 57.5838 168.536C57.5838 169.04 57.6808 169.482 57.8747 169.861C58.0752 170.241 58.3499 170.535 58.6991 170.745C59.0483 170.948 59.446 171.049 59.8921 171.049Z" fill="#80BF90"/>
<path d="M51.209 170.568H48.3866L47.9016 171.962H46.7476L49.1626 165.129H50.4428L52.8578 171.962H51.694L51.209 170.568ZM50.8986 169.655L49.8027 166.485L48.697 169.655H50.8986Z" fill="#80BF90"/>
<path d="M41.6085 171.962L40.0566 169.233H39.2128V171.962H38.1072V165.14H40.4349C40.9522 165.14 41.3886 165.232 41.7442 165.415C42.1063 165.598 42.3746 165.843 42.5492 166.151C42.7303 166.458 42.8208 166.802 42.8208 167.182C42.8208 167.626 42.6914 168.032 42.4328 168.399C42.1806 168.759 41.7894 169.004 41.2593 169.135L42.9274 171.962H41.6085ZM39.2128 168.34H40.4349C40.8487 168.34 41.159 168.235 41.366 168.026C41.5793 167.816 41.6861 167.534 41.6861 167.182C41.6861 166.828 41.5826 166.553 41.3756 166.357C41.1687 166.154 40.8552 166.053 40.4349 166.053H39.2128V168.34Z" fill="#80BF90"/>
<path d="M34.0779 165.14V166.053H32.2836V171.962H31.1779V166.053H29.3739V165.14H34.0779Z" fill="#80BF90"/>
<path d="M23.1812 172.031C22.7286 172.031 22.3213 171.952 21.9592 171.795C21.5971 171.632 21.3126 171.403 21.1057 171.108C20.8988 170.814 20.7953 170.47 20.7953 170.077H21.9785C22.0044 170.372 22.1176 170.614 22.318 170.804C22.5249 170.993 22.8127 171.089 23.1812 171.089C23.5627 171.089 23.8601 170.997 24.0735 170.814C24.2869 170.624 24.3935 170.382 24.3935 170.087C24.3935 169.858 24.3257 169.672 24.1899 169.527C24.0606 169.384 23.8957 169.273 23.6953 169.194C23.5012 169.115 23.2297 169.03 22.8805 168.939C22.4409 168.821 22.082 168.703 21.8039 168.585C21.5324 168.461 21.2997 168.271 21.1057 168.016C20.9116 167.76 20.8147 167.421 20.8147 166.995C20.8147 166.602 20.9116 166.259 21.1057 165.965C21.2997 165.669 21.5712 165.444 21.9204 165.287C22.2696 165.13 22.6737 165.051 23.1327 165.051C23.7858 165.051 24.3192 165.219 24.733 165.552C25.1533 165.88 25.3861 166.331 25.4314 166.907H24.2093C24.1899 166.658 24.0735 166.445 23.8601 166.268C23.6468 166.092 23.3655 166.004 23.0163 166.004C22.6995 166.004 22.4409 166.085 22.2404 166.249C22.04 166.413 21.9398 166.648 21.9398 166.956C21.9398 167.165 22.0012 167.338 22.124 167.476C22.2534 167.607 22.415 167.711 22.6089 167.79C22.803 167.869 23.0681 167.954 23.4043 168.045C23.8504 168.169 24.2126 168.294 24.4905 168.418C24.7751 168.542 25.0143 168.736 25.2082 168.998C25.4087 169.253 25.509 169.597 25.509 170.028C25.509 170.375 25.4152 170.703 25.2277 171.01C25.0466 171.317 24.7783 171.566 24.4227 171.756C24.0735 171.939 23.6597 172.031 23.1812 172.031Z" fill="#80BF90"/>
<path d="M15.3516 170.568H12.5292L12.0443 171.962H10.8901L13.3052 165.129H14.5854L17.0004 171.962H15.8365L15.3516 170.568ZM15.0412 169.655L13.9453 166.485L12.8396 169.655H15.0412Z" fill="#80BF90"/>
<path d="M0.507935 168.536C0.507935 167.869 0.659884 167.27 0.963783 166.739C1.27415 166.21 1.69119 165.797 2.21494 165.503C2.74514 165.202 3.32384 165.051 3.95103 165.051C4.66874 165.051 5.30564 165.232 5.86171 165.592C6.42424 165.944 6.83159 166.449 7.08377 167.103H5.75502C5.58044 166.743 5.33797 166.475 5.02761 166.298C4.71724 166.121 4.35839 166.033 3.95103 166.033C3.50488 166.033 3.10723 166.134 2.75807 166.338C2.40892 166.54 2.13411 166.831 1.93366 167.211C1.73969 167.591 1.6427 168.032 1.6427 168.536C1.6427 169.04 1.73969 169.482 1.93366 169.861C2.13411 170.241 2.40892 170.535 2.75807 170.745C3.10723 170.948 3.50488 171.049 3.95103 171.049C4.35839 171.049 4.71724 170.961 5.02761 170.784C5.33797 170.607 5.58044 170.339 5.75502 169.979H7.08377C6.83159 170.633 6.42424 171.138 5.86171 171.491C5.30564 171.844 4.66874 172.021 3.95103 172.021C3.31737 172.021 2.73867 171.874 2.21494 171.579C1.69119 171.279 1.27415 170.863 0.963783 170.333C0.659884 169.802 0.507935 169.203 0.507935 168.536Z" fill="#80BF90"/>
</g>
<defs>
<clipPath id="clip0_85_344">
<rect width="263" height="176" fill="white"/>
</clipPath>
</defs>
</svg>
